<svg xmlns="http://www.w3.org/2000/svg" xmlns:cc="http://web.resource.org/cc/" xmlns:ns1="http://sozi.baierouge.fr" xmlns:svg="http://www.w3.org/2000/svg" xmlns:xlink="http://www.w3.org/1999/xlink" id="svg1612" version="1.0" viewBox="0 0 359.37 469.36"><defs id="defs1614"><linearGradient id="linearGradient29808" x1="177.95" x2="191.45" y1="654.74" y2="654.74" gradientTransform="translate(225.21 -257.03)" gradientUnits="userSpaceOnUse" xlink:href="#linearGradient24757"/><linearGradient id="linearGradient29806" x1="309.71" x2="306.18" y1="596.63" y2="611.48" gradientTransform="translate(-9.0156 192.16)" gradientUnits="userSpaceOnUse" xlink:href="#linearGradient24757"/><linearGradient id="linearGradient24757"><stop id="stop24759" offset="0" style="stop-color:#d5d5d5"/><stop id="stop24761" offset="1" style="stop-color:#848484;stop-opacity:0"/></linearGradient><linearGradient id="linearGradient29804" x1="253.14" x2="379.72" y1="560.57" y2="560.57" gradientUnits="userSpaceOnUse" xlink:href="#linearGradient24757"/><linearGradient id="linearGradient29802" x1="491.76" x2="659.71" y1="400.17" y2="949.11" gradientTransform="translate(-220.88 106.92)" gradientUnits="userSpaceOnUse" xlink:href="#linearGradient22094"/><linearGradient id="linearGradient29800" x1="705.01" x2="265.58" y1="306.18" y2="482.62" gradientTransform="translate(-208.22 109.74)" gradientUnits="userSpaceOnUse"><stop id="stop22985" offset="0" style="stop-color:#000"/><stop id="stop22987" offset="1" style="stop-color:#000;stop-opacity:0"/></linearGradient><linearGradient id="linearGradient22094"><stop id="stop22096" offset="0" style="stop-color:#000"/><stop id="stop22098" offset="1" style="stop-color:#000;stop-opacity:0"/></linearGradient><linearGradient id="linearGradient29798" x1="575.89" x2="576.57" y1="133.76" y2="211.3" gradientTransform="translate(-208.22 109.74)" gradientUnits="userSpaceOnUse" xlink:href="#linearGradient22094"/></defs><g id="layer1" transform="translate(-226.03 -301.23)"><g id="g29774" transform="matrix(.95252 0 0 .80631 78.742 104.9)"><path id="path29776" d="m154.75 296.11l209-52.5 167.75 5.75-3 363.25-125.25 213-233.75-56.5-14.75-473z" style="fill-rule:evenodd;fill:#fff"/><g id="g29778"><path id="path29780" d="m363.7 243.5l168.21 6.13-127.82 56.4-249.31-9.77 208.92-52.76z" style="fill-rule:evenodd;fill:url(#linearGradient29798)"/><path id="path29782" d="m531.39 249.13l-3.1 362.98-125.04 212.97 0.18-519.27 127.96-56.68z" style="fill-rule:evenodd;fill:url(#linearGradient29800)"/><path id="path29784" d="m154.63 296.26l249.02 9.38-0.18 519.59-233.54-56.28-15.3-472.69z" style="fill-rule:evenodd;fill:url(#linearGradient29802)"/><path id="path29786" d="m253.14 300l124.46 4.6 2.47 514.77-33.29-7.78-93.64-511.59z" style="fill-rule:evenodd;fill:url(#linearGradient29804)"/><path id="path29788" d="m169.88 768.99l-0.53-16.09 233.7 53.39-0.06 18.38-233.11-55.68z" style="fill-rule:evenodd;fill:url(#linearGradient29806)"/><path id="path29790" d="m403.76 306.01l12.9-5.48v502.75l-13.49 21.57 0.59-518.84z" style="fill-rule:evenodd;fill:url(#linearGradient29808)"/><path id="path29792" d="m352.16 337.78l39.58 2.22-0.76 11.63-39.42-2.26 0.6-11.59z" style="fill-rule:evenodd;fill:#3c36d3"/><path id="path29794" d="m352.16 371.94l39.58 2.22-0.76 11.63-39.42-2.26 0.6-11.59z" style="fill-rule:evenodd;fill:#3c36d3"/><path id="path29796" d="m352.16 406.1l39.58 2.22-0.76 11.63-39.42-2.26 0.6-11.59z" style="fill-rule:evenodd;fill:#3c36d3"/></g></g></g><metadata/></svg>